Coordinates
version=1
nRows=18
nColumns=34
inDegrees=no

Units are S.I. units (second, meters, Newtons, ...)
If the header above contains a line with 'inDegrees', this indicates whether rotational values are in degrees (yes) or radians (no).

endheader
time	pelvis_tilt	pelvis_list	pelvis_rotation	pelvis_tx	pelvis_ty	pelvis_tz	hip_flexion_r	hip_adduction_r	hip_rotation_r	knee_angle_r	ankle_angle_r	subtalar_angle_r	mtp_angle_r	hip_flexion_l	hip_adduction_l	hip_rotation_l	knee_angle_l	ankle_angle_l	subtalar_angle_l	mtp_angle_l	lumbar_extension	lumbar_bending	lumbar_rotation	arm_flex_r	arm_add_r	arm_rot_r	elbow_flex_r	pro_sup_r	arm_flex_l	arm_add_l	arm_rot_l	elbow_flex_l	pro_sup_l
3.36	-0.502705	0.0340212	-0.0444647	-0.356463	0.681399	-0.555058	1.55741	-0.0630261	0.0972989	1.51099	0.488083	-0.389249	-0.00241763	1.6573	-0.326902	0.104607	1.54757	-0.100304	-0.610865	-0.00241763	-0.19699	-0.0560628	0.0473234	0.33059	-0.238787	-0.00696707	2.20251	1.80623	0.393842	-0.358971	0.0249217	2.21448	1.94464
3.37	-0.497168	0.0311786	-0.0400019	-0.350985	0.690612	-0.55457	1.52758	-0.0614376	0.0900734	1.48857	0.49955	-0.366645	-0.00241763	1.63104	-0.317033	0.0987393	1.52776	-0.105832	-0.610865	-0.00241763	-0.187255	-0.0553586	0.0453731	0.302224	-0.234401	-0.010082	2.20018	1.79853	0.366996	-0.354207	0.0294763	2.211	1.9339
3.38	-0.489386	0.0292489	-0.0350645	-0.345438	0.700193	-0.554164	1.495	-0.0609792	0.0830451	1.46512	0.509909	-0.34451	-0.00241763	1.60101	-0.306212	0.092214	1.50677	-0.10662	-0.610865	-0.00241763	-0.179133	-0.0554133	0.0413634	0.274809	-0.22894	-0.0107793	2.19684	1.77922	0.339516	-0.350374	0.0342837	2.20779	1.91821
3.39	-0.481549	0.0262905	-0.0302501	-0.339753	0.709927	-0.553763	1.46145	-0.0604766	0.0740662	1.44026	0.519715	-0.321629	-0.00241763	1.57074	-0.295605	0.0871903	1.4851	-0.105262	-0.607298	-0.00241763	-0.169404	-0.053957	0.0380286	0.246445	-0.222954	-0.0129078	2.19122	1.77704	0.311169	-0.345017	0.0379662	2.20108	1.91674
3.4	-0.473197	0.0224861	-0.0259817	-0.333964	0.719915	-0.553306	1.42642	-0.0592064	0.0636748	1.41362	0.529011	-0.297503	-0.00241763	1.53974	-0.286209	0.0830964	1.4627	-0.0985489	-0.588408	-0.00241763	-0.158845	-0.0512733	0.0360065	0.217417	-0.21721	-0.0154449	2.18526	1.77491	0.28224	-0.337874	0.0421734	2.19271	1.91374
3.41	-0.463615	0.0190767	-0.0220877	-0.328152	0.730173	-0.552865	1.38964	-0.0577572	0.0534824	1.38548	0.537204	-0.272421	-0.00241763	1.50713	-0.277699	0.0783955	1.4395	-0.0919948	-0.568288	-0.00241763	-0.148817	-0.0489009	0.0339013	0.189202	-0.211741	-0.016889	2.17923	1.76986	0.253353	-0.330592	0.0474061	2.18391	1.91148
3.42	-0.452961	0.0170055	-0.0175191	-0.322349	0.740576	-0.55259	1.35178	-0.0581598	0.0439507	1.3567	0.544749	-0.245873	-0.00241763	1.47305	-0.268364	0.0728465	1.41562	-0.0864059	-0.546103	-0.00241763	-0.139343	-0.0478379	0.0301041	0.162617	-0.206237	-0.01695	2.17332	1.76304	0.225308	-0.324021	0.0540501	2.17544	1.9093
3.43	-0.441974	0.0157265	-0.0121985	-0.31652	0.751013	-0.552461	1.31343	-0.0604897	0.0340178	1.32728	0.55242	-0.217458	-0.00241763	1.43846	-0.258084	0.0669962	1.39116	-0.0822919	-0.523112	-0.00241763	-0.129312	-0.047341	0.0250732	0.137093	-0.2008	-0.0159498	2.16804	1.75208	0.197896	-0.317358	0.0621634	2.16768	1.89899
3.44	-0.430731	0.0140444	-0.00740178	-0.310646	0.761494	-0.552269	1.27424	-0.0622259	0.0230976	1.29647	0.559649	-0.18809	-0.00241763	1.4038	-0.249121	0.0612248	1.36635	-0.0794265	-0.500664	-0.00241763	-0.118415	-0.0462024	0.0201926	0.112237	-0.195763	-0.0143415	2.16158	1.7544	0.170368	-0.310287	0.0699134	2.1595	1.88725
3.45	-0.418233	0.0121625	-0.00338461	-0.304734	0.77212	-0.55198	1.23316	-0.0627853	0.0120057	1.26415	0.565664	-0.158371	-0.00241763	1.36801	-0.242154	0.054982	1.34127	-0.0768994	-0.477803	-0.00241763	-0.108068	-0.0448541	0.0151107	0.0885816	-0.191795	-0.0104404	2.15502	1.7542	0.142803	-0.303446	0.0762548	2.15108	1.87674
3.46	-0.403607	0.0110836	0.000439881	-0.298771	0.782985	-0.551693	1.18942	-0.0635007	0.00150838	1.23055	0.570584	-0.127978	-0.00241763	1.3297	-0.236049	0.0474831	1.31569	-0.0745613	-0.453145	-0.00241763	-0.0997744	-0.044413	0.00924896	0.0667131	-0.18873	-0.00518475	2.14846	1.75125	0.115767	-0.296585	0.080785	2.14285	1.86799
3.47	-0.387371	0.0106328	0.00366331	-0.292749	0.794019	-0.551378	1.14356	-0.063961	-0.00838801	1.19553	0.57427	-0.0971693	-0.00241763	1.28922	-0.230946	0.0389406	1.28949	-0.0730382	-0.427185	-0.00241763	-0.093016	-0.0444939	0.00391624	0.0463161	-0.185783	-0.00108392	2.14101	1.75781	0.0895443	-0.288657	0.0832447	2.13367	1.86696
3.48	-0.37085	0.010381	0.00575857	-0.286697	0.805023	-0.550966	1.0973	-0.0631827	-0.0172658	1.15942	0.575915	-0.0671352	-0.00241763	1.24816	-0.227445	0.029803	1.26284	-0.0721234	-0.400685	-0.00241763	-0.0859357	-0.0445031	0.000589086	0.0262777	-0.183197	0.00195024	2.13327	1.76987	0.06474	-0.279709	0.0855662	2.12307	1.86815
3.49	-0.354431	0.0106455	0.00706169	-0.280659	0.815901	-0.55049	1.0514	-0.061644	-0.0245569	1.12279	0.575333	-0.0386727	-0.00241763	1.20693	-0.224894	0.0200671	1.2357	-0.0710578	-0.373295	-0.00241763	-0.0779948	-0.044843	-0.000897601	0.00606554	-0.18153	0.00570349	2.12699	1.76783	0.0419038	-0.270561	0.0896161	2.11199	1.86068
3.5	-0.337586	0.0112672	0.00796634	-0.274634	0.826702	-0.550013	1.00493	-0.0598104	-0.0308119	1.08525	0.57317	-0.0115071	-0.00241763	1.16493	-0.222575	0.0101234	1.20783	-0.0702913	-0.345502	-0.00241763	-0.0701408	-0.0453941	-0.00221	-0.0131881	-0.180046	0.00885732	2.11913	1.77692	0.0199069	-0.261245	0.0920328	2.09945	1.86673
3.51	-0.320275	0.011588	0.00855085	-0.268605	0.837427	-0.549564	0.957383	-0.0573638	-0.0367102	1.04618	0.569592	0.0146197	-0.00241763	1.12227	-0.220559	0.000672318	1.17927	-0.0703718	-0.317971	-0.00241763	-0.062685	-0.0455506	-0.00492274	-0.0303167	-0.178909	0.0130914	2.11028	1.77968	-0.00290534	-0.251793	0.0924223	2.08922	1.87033
3.52	-0.30293	0.0120425	0.00866839	-0.262623	0.848005	-0.549126	0.909544	-0.0543292	-0.0411915	1.00588	0.56402	0.0390182	-0.00241763	1.0794	-0.218688	-0.00863186	1.15011	-0.0714477	-0.29089	-0.00241763	-0.055136	-0.0458666	-0.00797728	-0.0459577	-0.179047	0.0186757	2.10084	1.77923	-0.0255065	-0.242266	0.0923609	2.08064	1.87213
3.53	-0.28522	0.0135382	0.00803855	-0.256784	0.858398	-0.54868	0.86161	-0.0511479	-0.0427627	0.965062	0.556484	0.0611412	-0.00241763	1.03575	-0.216355	-0.0185782	1.12033	-0.073447	-0.264919	-0.00241763	-0.0480148	-0.0471905	-0.0084504	-0.0617755	-0.179852	0.0229765	2.09233	1.77808	-0.0451494	-0.232804	0.0951987	2.07236	1.86844
